<svg class="icon" viewBox="0 0 1099 1024" xmlns="http://www.w3.org/2000/svg" width="214.648" height="200"><defs><style/></defs><path d="M628.36 508.2h66.1v61.4h-92.2l-16.9 21.4v18.8h109.1v59.1h-109.1v82.7h-81.7v-82.7h-111.6v-59.1h111.7V591l-17.2-21.4h-92.1l-2.4-61.4h80.4l-74.5-174.9h91l61.4 182 63.8-182h84.7l-70.5 174.9z"/><path d="M145.16 744c-10.7 0-21.4-5.9-26.8-16.7-10.1-20.8-19-42.8-26.2-64.8-5.4-15.5 3.6-32.1 19-37.5s32.1 3.6 37.5 19c6.5 19 14.3 38.7 23.2 56.5 7.1 14.9 1.2 32.7-13.1 39.9-4.7 2.4-9.5 3.6-13.6 3.6zm399.1 247.5c-66.6 0-131.5-13.7-192.1-40.4-58.3-26.2-110.6-62.5-154.6-109.4-11.3-11.9-10.7-30.9 1.2-42.2 11.9-11.3 30.9-10.7 42.2 1.2 38.7 41 83.9 73.2 135 95.8 52.9 23.8 109.4 35.7 167.7 35.7 111.2 0 215.3-43.4 294.4-121.9 78.5-78.5 121.9-183.2 121.9-294.4s-43.4-215.3-121.9-294.4c-78.5-78.2-183.2-121.7-293.8-121.7-111.2 0-215.3 43.4-294.4 121.9-78.6 78.6-122 183.3-122 294.5 0 16.7-13.1 29.7-29.7 29.7s-29.7-13.1-29.7-29.7c0-64.2 12.5-126.7 37.5-185 23.8-56.5 58.3-107.7 101.7-151.1 43.4-43.4 94.6-77.9 151.1-101.7 58.9-25 120.7-37.5 185-37.5s126.7 12.5 185 37.5c56.5 23.8 107.7 58.3 151.1 101.7 43.4 43.4 77.9 94.6 101.7 151.1 25 58.9 37.5 120.7 37.5 185s-12.5 126.7-37.5 185c-23.8 56.5-58.3 107.7-101.7 151.1-43.6 43.4-94.7 77.9-151.2 101.7-58.3 25-120.2 37.5-184.4 37.5z"/></svg>