<?xml version="1.0" standalone="no"?><!DOCTYPE svg PUBLIC "-//W3C//DTD SVG 1.1//EN" "http://www.w3.org/Graphics/SVG/1.1/DTD/svg11.dtd"><svg t="1565597094563" class="icon" viewBox="0 0 1024 1024" version="1.1" xmlns="http://www.w3.org/2000/svg" p-id="12698" xmlns:xlink="http://www.w3.org/1999/xlink" width="200" height="200"><defs><style type="text/css"></style></defs><path d="M908.501333 904.832L512 508.330667 115.498667 904.832a42.666667 42.666667 0 0 1-60.330667-60.330667l426.666667-426.666666a42.666667 42.666667 0 0 1 60.330666 0l426.666667 426.666666a42.666667 42.666667 0 0 1-60.330667 60.330667z m0-298.666667L512 209.664 115.498667 606.165333a42.666667 42.666667 0 0 1-60.330667-60.330666l426.666667-426.666667a42.666667 42.666667 0 0 1 60.330666 0l426.666667 426.666667a42.666667 42.666667 0 0 1-60.330667 60.330666z" fill="" p-id="12699"></path></svg>