<svg class="icon" viewBox="0 0 1024 1024" xmlns="http://www.w3.org/2000/svg" width="200" height="200"><defs><style/></defs><path d="M504.32 427.52c25.6 10.24 48.64 25.6 66.56 48.64 51.2 61.44 40.96 153.6-15.36 209.92L419.84 821.76c-56.32 56.32-143.36 64-204.8 17.92-74.24-58.88-79.36-166.4-15.36-230.4l89.6-89.6c10.24-10.24 10.24-25.6 0-35.84-10.24-10.24-25.6-10.24-35.84 0l-87.04 87.04c-71.68 71.68-84.48 186.88-25.6 268.8 76.8 102.4 222.72 112.64 309.76 25.6L588.8 727.04c76.8-76.8 87.04-199.68 17.92-281.6-23.04-28.16-53.76-48.64-84.48-58.88-17.92-5.12-35.84 5.12-35.84 23.04 0 5.12 7.68 15.36 17.92 17.92z"/><path d="M519.68 596.48c-25.6-10.24-48.64-25.6-66.56-48.64-51.2-61.44-40.96-153.6 15.36-209.92l135.68-135.68c56.32-56.32 143.36-64 204.8-17.92 74.24 58.88 79.36 166.4 15.36 230.4l-89.6 89.6c-10.24 10.24-10.24 25.6 0 35.84 10.24 10.24 25.6 10.24 35.84 0l87.04-87.04c71.68-71.68 84.48-186.88 25.6-268.8-76.8-102.4-222.72-112.64-309.76-25.6L435.2 296.96c-76.8 76.8-87.04 199.68-17.92 281.6 23.04 28.16 53.76 48.64 84.48 58.88 17.92 5.12 35.84-5.12 35.84-23.04 0-5.12-7.68-15.36-17.92-17.92z"/></svg>