<svg class="icon" viewBox="0 0 1024 1024" xmlns="http://www.w3.org/2000/svg" width="200" height="200"><defs><style/></defs><path d="M512 311.855H279.273v65.163H512v-65.163zM279.273 572.509h465.454v-65.164H279.273v65.164zm0 195.491h465.454v-65.164H279.273V768zM921.6 260.655l-223.418-204.8c-4.655-4.655-13.964-9.31-18.618-9.31H125.673c-18.618 0-32.582 13.964-32.582 32.582v865.746c0 18.618 13.964 32.582 32.582 32.582h777.309c18.618 0 32.582-13.964 32.582-32.582V283.927c-4.655-4.654-9.31-13.963-13.964-23.272zM693.527 134.982l167.564 158.254H693.527V134.982zM865.745 912.29h-707.49V111.709h470.109v214.11c0 18.617 13.963 32.581 32.581 32.581H870.4v553.89z"/></svg>