<svg class="icon" viewBox="0 0 1024 1024" xmlns="http://www.w3.org/2000/svg" width="200" height="200"><defs><style/></defs><path d="M512 192c141.152 0 256 114.848 256 256S653.152 704 512 704 256 589.152 256 448s114.848-256 256-256m0-64c-176.736 0-320 143.264-320 320s143.264 320 320 320 320-143.264 320-320-143.264-320-320-320z"/><path d="M822.496 673.552C828.48 683.328 832 693.488 832 704c0 70.688-143.264 128-320 128s-320-57.312-320-128c0-10.512 3.52-20.672 9.504-30.448a384.608 384.608 0 0 1-35.296-58.656C134.624 648.368 128 682.032 128 704c0 35.984 17.408 103.312 133.952 149.936C329.776 881.056 418.576 896 512 896s182.224-14.944 250.048-42.064C878.592 807.312 896 739.984 896 704c0-21.968-6.624-55.632-38.208-89.12a384.768 384.768 0 0 1-35.296 58.672z"/><path d="M512 256c-106.032 0-192 85.968-192 192s85.968 192 192 192 192-85.968 192-192-85.968-192-192-192zm-80 176a64 64 0 1 1 0-128 64 64 0 0 1 0 128z"/></svg>