<svg id="图层_1" data-name="图层 1" xmlns="http://www.w3.org/2000/svg" viewBox="0 0 152.5 153.31">
<path class="cls-1" style="fill:#747474;stroke:#747474;stroke-width:3" d="M380.5,420.25c-2.21.48-1.87,1.34-2.25,1.5-2.67,1.14-6.38-.94-8.25.75,3.7,2.05,5.34,5.28,5.25,11.25-1.5,1.29-.63,1.74-1.5,3l-3,2.25L364,446.5l-18.75,18h-7.5a18.3,18.3,0,0,0-6-6,61.47,61.47,0,0,1-.75,11.25l-2.25.75v.75h-1.5V472H286v-.75l-3.75-.75-.75-2.25h-.75c-1.12-3.08,1.13-7.64-.75-9.75l-5.25,6h-7.5v-.75c-3.79-1-5.81-5.06-8.25-7.5l-15-15-5.25-4.5-.75-3h-.75c-2.26-6.39,4.25-9,6-12H235V421l-3-.75-.75-3h-.75v-43.5L232,373v-1.5l3-.75V370c2.75-1,6.41.92,8.25-.75-2.6-1.5-3.79-4.18-6-6V358c1.5-1.29.63-1.74,1.5-3l3-2.25,6.75-7.5,18.75-18h7.5a33.34,33.34,0,0,0,6,5.25v-9l1.5-.75v-1.5c9.7-2,24-1.5,36-1.5,5.75,0,11.43-.74,12.75,3.75h.75c1.37,2.48-1.23,7.48.75,9.75l5.25-6h7.5V328c3.79,1,5.8,5.05,8.25,7.5l21,20.25.75,7.5-6,6.75a56.64,56.64,0,0,1,10.5.75c.44.8,1.32,1.2,1.5,1.5v1.5H382V418l-1.5.75Z" transform="translate(-230 -319.19)"/>
<path class="cls-1" style="fill:#fff;stroke:#747474;stroke-width:3"  d="M295,334.75c.21,7.24,1.91,20.89-3.75,22.5-1.28,1.19-5.05.82-7.5.75-1.28-2.26-11-12.1-13.5-12.75-1.77,3.09-5.05,5.05-7.5,7.5s-4.41,5.71-7.5,7.5V361H256l12.75,13.5c.18,4.5-.34,8.08-3.75,9-1.79,1.6-15.66.81-19.5.75-2,5.46-.79,15.66-.75,22.5,4.9,1.81,14,.79,20.25.75.79,1,1.53,1.12,2.25,2.25,1.58,1.53,1.56,4.31,1.5,7.5-1,.79-.75,1.44-1.5,2.25l-12,11.25v.75H256c2.23,3.93,7.31,7.31,10.5,10.5,1.78,1.78,2.36,3.73,5.25,4.5l12-12.75h7.5c.79,1,1.53,1.12,2.25,2.25,2.56,2.56,1.57,15.62,1.5,21h22.5c-.21-7.24-1.91-20.89,3.75-22.5,1.28-1.19,5.05-.82,7.5-.75,1.28,2.26,11,12.1,13.5,12.75l15-15.75-12.75-12V416.5h-.75c-.75-2.4,1.4-7.74,2.25-8.25h1.5c1.79-1.6,15.66-.81,19.5-.75,2-5.46.79-15.66.75-22.5-4.9-1.81-14-.79-20.25-.75-.85-.85,0-.3-1.5-.75-1.32-2.9-2.24-4.33-2.25-9l13.5-14.25-12-11.25c-1.61-1.61-1.84-3-4.5-3.75l-12,12.75h-7.5c-.85-.85,0-.3-1.5-.75L319,355h-.75v-1.5h-.75V334.75Z" transform="translate(-230 -319.19)"/>
<path class="cls-1" style="fill:#747474;stroke:#747474;stroke-width:3"  d="M300.25,361.75h12v.75H316v.75l4.5.75v.75l4.5,1.5,1.5,2.25H328l3,3.75,3,2.25V376l1.5.75,1.5,4.5h.75v1.5h.75c1.31,3,1.49,7.09,1.5,11.25v9.75c-3.84,12.61-11.68,21.41-24,25.5l-15.75.75v-.75H296.5v-.75h-2.25v-.75H292V427h-1.5v-.75H289l-.75-1.5h-1.5l-.75-1.5h-1.5L283,421l-3.75-3v-1.5L277,415l-1.5-4.5h-.75V409H274l-.75-5.25h-.75c-.84-2.83.06-16.83.75-18.75H274v-2.25h.75l1.5-4.5H277v-1.5l2.25-1.5v-1.5l3.75-3,1.5-2.25H286l.75-1.5h1.5l.75-1.5Z" transform="translate(-230 -319.19)"/>
<path class="cls-1"  style="fill:#fff;stroke:#747474;stroke-width:3" d="M305.5,376v.75H301v.75h-1.5v.75h-2.25l-.75,1.5H295l-.75,1.5-4.5,3.75-1.5,4.5h-.75v2.25c-3.74,10.45,4.95,18.53,11.25,21.75v.75l9,1.5V415h3.75c3.92-1.36,6.39-4.09,9-6.75l2.25-1.5.75-3h.75v-1.5H325v-3h.75c1-3.25-.58-9.49-1.5-11.25h-.75C319.87,381.21,315.13,376.71,305.5,376Z" transform="translate(-230 -319.19)"/></svg>