<?xml version="1.0" standalone="no"?><!DOCTYPE svg PUBLIC "-//W3C//DTD SVG 1.1//EN" "http://www.w3.org/Graphics/SVG/1.1/DTD/svg11.dtd"><svg t="1565138490239" class="icon" viewBox="0 0 1024 1024" version="1.1" xmlns="http://www.w3.org/2000/svg" p-id="4862" xmlns:xlink="http://www.w3.org/1999/xlink" width="200" height="200"><defs><style type="text/css"></style></defs><path d="M512.07 128H512c-176 0-320 144-320 320v352h240.41A287.49 287.49 0 0 1 416 704c0-159.06 128.94-288 288-288a286.78 286.78 0 0 1 128 29.95C830.9 270.89 687.37 128 512.07 128zM446 832H128v64H64v64h508a289.22 289.22 0 0 1-126-128z m472.68 64A289.06 289.06 0 0 1 836 960h124v-64z" p-id="4863"></path><path d="M696 448.12C561 452.24 452.24 561 448.12 696c-4.49 147 116.79 268.32 263.83 263.83C847 955.76 955.76 847 959.88 711.95 964.36 564.91 843.09 443.63 696 448.12z m-48.24 399.41l-45.25-45.25L512 711.76l45.25-45.25L647.76 757l181-181L874 621.25z" p-id="4864"></path></svg>