<svg class="icon" viewBox="0 0 1024 1024" xmlns="http://www.w3.org/2000/svg" width="200" height="200"><defs><style/></defs><path d="M510.547 845.557c-28.56 0-56.404-2.591-83.475-7.058L231.354 957.234V759.55C129.325 687.898 63.838 578.068 63.838 454.686c0-215.88 200.007-390.87 446.709-390.87s446.709 174.99 446.709 390.87-200.007 390.87-446.71 390.87zm0-725.903c-215.88 0-390.871 150.005-390.871 335.033 0 113.523 66.053 213.706 166.83 274.28l-1.757 129.515 131.422-79.007c30.287 6.431 61.765 10.244 94.375 10.244 215.88 0 390.871-150.004 390.871-335.032s-174.991-335.033-390.87-335.033zM733.9 510.525c-30.853 0-55.839-24.985-55.839-55.838 0-30.823 24.986-55.84 55.839-55.84 30.854 0 55.839 24.986 55.839 55.84 0 30.852-24.985 55.838-55.84 55.838zm-223.354 0c-30.823 0-55.839-24.985-55.839-55.838 0-30.823 25.016-55.84 55.839-55.84 30.854 0 55.839 24.986 55.839 55.84 0 30.852-25.016 55.838-55.84 55.838zm-223.355 0c-30.853 0-55.839-24.985-55.839-55.838 0-30.823 24.985-55.84 55.839-55.84 30.823 0 55.839 24.986 55.839 55.84 0 30.852-24.986 55.838-55.84 55.838z"/></svg>