<svg class="icon" viewBox="0 0 1024 1024" xmlns="http://www.w3.org/2000/svg" width="200" height="200"><defs><style/></defs><path d="M511.998 57.264c-204.053 0-369.471 165.418-369.471 369.473 0 47.589 9 93.074 25.386 134.852a367.741 367.741 0 0 0 19.05 40.967c40.071 79.613 144.58 256.801 325.035 364.179 180.42-107.355 284.924-284.497 325.012-364.13 28.357-52.295 44.461-112.2 44.461-175.868 0-204.054-165.417-369.473-369.473-369.473zm.003 687.45c-173.355 0-313.885-140.532-313.885-313.885S338.646 116.945 512 116.945c173.352 0 313.882 140.53 313.882 313.883s-140.53 313.885-313.882 313.885z"/><path d="M467.554 500.811c10.615 2.107 24.275 2.814 39.424 2.814 68.249 0 126.64-16.18 166.063-49.954 31.107-26.031 47.024-65.428 47.024-112.558 0-46.433-21.228-85.83-54.59-109.046-34.133-26.031-84.942-38.697-156.221-38.697-70.509 0-120.562 4.222-156.204 9.85v467.842h114.504v-170.25zm0-222.312c8.336-2.114 24.275-3.522 47.006-3.522 58.392 0 91.002 26.032 91.002 69.648 0 47.84-37.916 76.689-99.336 76.689-17.442 0-28.81-.701-38.67-2.817V278.5h-.002zm0 0"/></svg>