<svg class="icon" viewBox="0 0 1024 1024" xmlns="http://www.w3.org/2000/svg" width="200" height="200"><defs><style/></defs><path d="M968 992H56c-13.248 0-24-10.688-24-24s10.752-24 24-24h912c13.248 0 24 10.752 24 24 0 13.312-10.688 24-24 24zM176 560h-48c-26.496 0-48 21.504-48 48v240c0 26.56 21.504 48 48 48h48c26.496 0 48-21.504 48-48V608c0-26.496-21.504-48-48-48zm-48 288V608h48v240h-48zM416 272h-48c-26.496 0-48 21.504-48 48v528c0 26.56 21.504 48 48 48h48c26.496 0 48-21.504 48-48V320c0-26.496-21.504-48-48-48zm-48 576V320h48v528h-48zM656 368h-48c-26.56 0-48 21.44-48 48v432c0 26.56 21.504 48 48 48h48c26.496 0 48-21.504 48-48V416c0-26.56-21.44-48-48-48zm-48 480V416h48v432h-48zM896 32h-48c-26.496 0-48 21.504-48 48v768c0 26.496 21.504 48 48 48h48c26.496 0 48-21.504 48-48V80c0-26.496-21.44-48-48-48zm-48 816V80h48v768h-48z"/></svg>