<?xml version="1.0" standalone="no"?><!DOCTYPE svg PUBLIC "-//W3C//DTD SVG 1.1//EN" "http://www.w3.org/Graphics/SVG/1.1/DTD/svg11.dtd"><svg t="1565138499293" class="icon" viewBox="0 0 1024 1024" version="1.1" xmlns="http://www.w3.org/2000/svg" p-id="4990" xmlns:xlink="http://www.w3.org/1999/xlink" width="200" height="200"><defs><style type="text/css"></style></defs><path d="M512.07 128H512c-176 0-320 144-320 320v352h240.41A287.49 287.49 0 0 1 416 704c0-159.06 128.94-288 288-288a286.78 286.78 0 0 1 128 29.95C830.9 270.89 687.37 128 512.07 128zM446 832H128v64H64v64h508a289.22 289.22 0 0 1-126-128z m472.68 64A289.06 289.06 0 0 1 836 960h124v-64z" p-id="4991"></path><path d="M704 448c-141.38 0-256 114.62-256 256s114.62 256 256 256 256-114.62 256-256-114.61-256-256-256z m32 320h-64V544h64z m0 96h-64v-64h64z" p-id="4992"></path></svg>