<svg class="icon" viewBox="0 0 1024 1024" xmlns="http://www.w3.org/2000/svg" width="200" height="200"><defs><style/></defs><path d="M742.4 1024c-155.136 0-281.6-126.464-281.6-281.6s126.464-281.6 281.6-281.6S1024 587.264 1024 742.4 897.536 1024 742.4 1024zm0-512C615.424 512 512 615.424 512 742.4s103.424 230.4 230.4 230.4 230.4-103.424 230.4-230.4S869.376 512 742.4 512zm-281.6 51.2c-155.136 0-281.6-126.464-281.6-281.6S305.664 0 460.8 0s281.6 126.464 281.6 281.6c0 39.424-8.192 77.312-23.552 112.64-5.632 12.8-20.992 18.944-33.792 12.8-12.8-5.632-18.944-20.992-12.8-33.792 12.8-29.184 19.456-59.904 19.456-92.16 0-126.976-103.424-230.4-230.4-230.4s-230.4 103.424-230.4 230.4 103.424 230.4 230.4 230.4c14.336 0 25.6 11.264 25.6 25.6S475.136 563.2 460.8 563.2z"/><path d="M51.2 1024H0c0-121.344 51.712-249.344 142.336-350.72C233.984 570.88 350.208 512 460.8 512v51.2c-202.752 0-409.6 232.448-409.6 460.8zm651.776-168.96c-6.656 0-13.312-2.56-17.92-7.68l-102.4-102.4c-10.24-10.24-10.24-26.112 0-36.352s26.112-10.24 36.352 0l102.4 102.4c10.24 10.24 10.24 26.112 0 36.352-5.12 5.12-11.776 7.68-18.432 7.68z"/><path d="M705.536 857.6c-6.656 0-13.312-2.56-17.92-7.68-10.24-10.24-10.24-26.112 0-36.352l179.2-179.2c10.24-10.24 26.112-10.24 36.352 0s10.24 26.112 0 36.352l-179.2 179.2c-5.12 5.12-11.776 7.68-18.432 7.68z"/></svg>